<?xml version="1.0" standalone="no"?>
<svg xmlns:xlink="http://www.w3.org/1999/xlink" id="wave" style="transform:rotate(180deg); transition: 0.3s" viewBox="0 0 1440 270" version="1.1" xmlns="http://www.w3.org/2000/svg"><defs><linearGradient id="sw-gradient-0" x1="0" x2="0" y1="1" y2="0"><stop stop-color="rgba(1, 183, 254, 1)" offset="0%"/><stop stop-color="rgba(1, 183, 254, 1)" offset="100%"/></linearGradient></defs><path style="transform:translate(0, 0px); opacity:1" fill="url(#sw-gradient-0)" d="M0,189L13.3,157.5C26.7,126,53,63,80,45C106.7,27,133,54,160,94.5C186.7,135,213,189,240,180C266.7,171,293,99,320,90C346.7,81,373,135,400,135C426.7,135,453,81,480,49.5C506.7,18,533,9,560,40.5C586.7,72,613,144,640,180C666.7,216,693,216,720,189C746.7,162,773,108,800,90C826.7,72,853,90,880,103.5C906.7,117,933,126,960,108C986.7,90,1013,45,1040,22.5C1066.7,0,1093,0,1120,22.5C1146.7,45,1173,90,1200,99C1226.7,108,1253,81,1280,76.5C1306.7,72,1333,90,1360,117C1386.7,144,1413,180,1440,171C1466.7,162,1493,108,1520,103.5C1546.7,99,1573,144,1600,157.5C1626.7,171,1653,153,1680,162C1706.7,171,1733,207,1760,207C1786.7,207,1813,171,1840,144C1866.7,117,1893,99,1907,90L1920,81L1920,270L1906.7,270C1893.3,270,1867,270,1840,270C1813.3,270,1787,270,1760,270C1733.3,270,1707,270,1680,270C1653.3,270,1627,270,1600,270C1573.3,270,1547,270,1520,270C1493.3,270,1467,270,1440,270C1413.3,270,1387,270,1360,270C1333.3,270,1307,270,1280,270C1253.3,270,1227,270,1200,270C1173.3,270,1147,270,1120,270C1093.3,270,1067,270,1040,270C1013.3,270,987,270,960,270C933.3,270,907,270,880,270C853.3,270,827,270,800,270C773.3,270,747,270,720,270C693.3,270,667,270,640,270C613.3,270,587,270,560,270C533.3,270,507,270,480,270C453.3,270,427,270,400,270C373.3,270,347,270,320,270C293.3,270,267,270,240,270C213.3,270,187,270,160,270C133.3,270,107,270,80,270C53.3,270,27,270,13,270L0,270Z"/></svg>