<svg xmlns="http://www.w3.org/2000/svg" version="1.1" xmlns:xlink="http://www.w3.org/1999/xlink" xmlns:svgjs="http://svgjs.dev/svgjs" viewBox="0 0 2400 800" opacity="1"><g fill="#01b7fe" transform="matrix(1,0,0,1,9.9305419921875,297.00709533691406)"><path d="M-10,10C27.797619047619044,33.958333333333336,97.91666666666666,133.33333333333334,171.42857142857142,125C244.94047619047618,116.66666666666667,271.42857142857144,-19.583333333333332,342.85714285714283,-30C414.2857142857142,-40.41666666666667,442.8571428571428,95.41666666666666,514.2857142857142,75C585.7142857142857,54.583333333333336,614.2857142857142,-129.875,685.7142857142857,-128C757.1428571428571,-126.125,785.7142857142857,80.04166666666667,857.1428571428571,84C928.5714285714286,87.95833333333333,957.142857142857,-121.5,1028.5714285714284,-109C1099.9999999999998,-96.5,1128.5714285714287,136.70833333333334,1200,144C1271.4285714285713,151.29166666666666,1300,-53.583333333333336,1371.4285714285713,-74C1442.8571428571427,-94.41666666666666,1471.4285714285713,51.833333333333336,1542.8571428571427,46C1614.285714285714,40.166666666666664,1642.857142857143,-108.45833333333333,1714.2857142857142,-102C1785.7142857142856,-95.54166666666667,1814.2857142857142,52.833333333333336,1885.7142857142856,77C1957.1428571428569,101.16666666666666,1985.7142857142856,7.125,2057.142857142857,14C2128.5714285714284,20.875,2157.142857142857,114.375,2228.5714285714284,110C2300,105.625,2312.2023809523807,-67.41666666666667,2400,-7C2487.7976190476193,53.41666666666667,3254.1666666666665,211.04166666666669,2650,400C2045.8333333333335,588.9583333333333,156.25,795.8333333333334,-500,900" transform="matrix(1,0,0,1,0,117)" opacity="NaN"></path></g></svg>