<svg xmlns="http://www.w3.org/2000/svg" version="1.1" xmlns:xlink="http://www.w3.org/1999/xlink" xmlns:svgjs="http://svgjs.dev/svgjs" viewBox="0 0 2400 800" opacity="1"><g fill="#01b7feff" transform="matrix(1,0,0,1,9.6998291015625,385.500244140625)"><path d="M-10,10C30.544871794871796,28.75,105.60897435897436,121.66666666666666,184.6153846153846,100C263.62179487179486,78.33333333333334,292.3076923076923,-111.70833333333333,369.2307692307692,-94C446.15384615384613,-76.29166666666667,476.9230769230769,171.66666666666666,553.8461538461538,185C630.7692307692307,198.33333333333334,661.5384615384615,-0.2083333333333357,738.4615384615385,-30C815.3846153846154,-59.791666666666664,846.1538461538462,62.833333333333336,923.0769230769231,42C1000,21.166666666666664,1030.7692307692307,-134.16666666666666,1107.6923076923076,-130C1184.6153846153845,-125.83333333333333,1215.3846153846155,57.416666666666664,1292.3076923076924,62C1369.2307692307693,66.58333333333333,1400,-124.66666666666667,1476.923076923077,-108C1553.8461538461538,-91.33333333333333,1584.6153846153845,148.875,1661.5384615384614,142C1738.4615384615383,135.125,1769.2307692307693,-141.41666666666666,1846.1538461538462,-141C1923.076923076923,-140.58333333333334,1953.8461538461538,132.33333333333334,2030.7692307692307,144C2107.6923076923076,155.66666666666666,2138.461538461538,-76.25,2215.3846153846152,-85C2292.3076923076924,-93.75,2309.455128205128,0.9583333333333428,2400,102C2490.544871794872,203.04166666666666,3254.1666666666665,233.75,2650,400C2045.8333333333335,566.25,156.25,795.8333333333334,-500,900" transform="matrix(1,0,0,1,0,35)" opacity="NaN"></path></g></svg>